<?xml version="1.0" standalone="no"?>
<!DOCTYPE svg PUBLIC "-//W3C//DTD SVG 1.1//EN" "http://www.w3.org/Graphics/SVG/1.1/DTD/svg11.dtd" >
<!--
2013-9-30: Created.
-->
<svg>
<metadata>
Created by iconfont
</metadata>
<defs>

<font id="itopsfont" horiz-adv-x="1024" >
  <font-face
    font-family="itopsfont"
    font-weight="500"
    font-stretch="normal"
    units-per-em="1024"
    ascent="896"
    descent="-128"
  />
    <missing-glyph />
    
    <glyph glyph-name="account" unicode="&#58898;" d="M951 37c-93.5 219.5-306.7 230.9-306.7 230.9-78 37.8-10.6 85.4-10.6 85.4 115.7 78.7 121 263.4 121 263.4C771.8 892.3 512 896 512 896S252.2 892.3 269.3 616.7c0 0 5.3-184.8 120.9-263.4 0 0 67.5-47.6-10.6-85.4 0 0-213.2-11.4-306.7-230.9 0 0-126-161.8 439-165C1077-124.7 951 37 951 37z"  horiz-adv-x="1024" />

    
    <glyph glyph-name="down-arrow" unicode="&#58899;" d="M547.8 117.5l461.4 461.4c9.9 9.9 14.8 22.8 14.8 35.8 0 12.9-4.9 25.9-14.8 35.8-19.8 19.8-51.8 19.8-71.5 0L512 224.8 86.4 650.5c-19.8 19.8-51.8 19.8-71.5 0-19.8-19.8-19.8-51.8 0-71.5l461.4-461.4c19.7-19.8 51.7-19.8 71.5-0.1z"  horiz-adv-x="1024" />

    
    <glyph glyph-name="alarm" unicode="&#58900;" d="M942.8 114.1H908V392.9c0 99.1-36.9 193.9-104 267.1-63.6 69.4-148.9 113.6-241.5 125.5v60C562.5 873.3 539.9 896 512 896s-50.5-22.7-50.5-50.5v-101.7c0-1 0.1-1.9 0.2-2.7-0.1-0.8-0.2-1.7-0.2-2.7 0-27.9 22.7-50.5 50.5-50.5 162.5-0.2 294.8-132.5 295-294.9v-278.8H217.1V392.9c0.1 99.6 49.9 191.7 133.3 246.3 15 9.9 23.7 27.2 22.6 45.2-1.1 18-11.8 34.1-27.9 42.2-16.1 8-35.4 6.9-50.4-3-54.7-35.9-100-85.2-131.1-142.8-31.1-57.5-47.5-122.5-47.6-187.9v-278.8H81.2c-27.9 0-50.5-22.7-50.5-50.5S53.3 13 81.2 13h861.6c27.9 0 50.5 22.7 50.5 50.5s-22.6 50.6-50.5 50.6zM715.9 494.5c0 33.7-27.4 61.1-61.1 61.1s-61.1-27.4-61.1-61.1 27.4-61.1 61.1-61.1 61.1 27.4 61.1 61.1zM628-26.9H396c-27.9 0-50.5-22.7-50.5-50.5 0-27.9 22.7-50.5 50.5-50.5h232c27.9 0 50.5 22.7 50.5 50.5 0.1 27.8-22.6 50.5-50.5 50.5z"  horiz-adv-x="1024" />

    
    <glyph glyph-name="admin" unicode="&#58901;" d="M907.8 755.6L524.3 893.7C521.2 895.2 517.4 896 513.6 896c-3.8 0-7.7-0.8-10.7-2.3L116.2 755.6c-27.6-12.3-49.1-39.9-49.1-70.6v-346.7c0-61.4 15.3-122.7 46-178C174.5 56.1 297.2-57.4 512-128c217.8 73.6 340.6 177.9 398.9 288.4 27.6 55.2 46 116.6 46 178V685.1c0 30.6-21.5 58.3-49.1 70.5z m-38.7-417.2c0-42.4-12.6-90-36.3-137.8-24.7-46.4-63.1-89.5-114.3-128-54.8-41.3-124.3-77.4-206.7-107.6-78.6 28.4-146.8 64.7-203.1 108.1-51 39.3-91.1 83.3-119.3 130.9-22.5 41-34.5 87.4-34.5 134.4V676.2L513.5 804.3l355.7-128v-337.9zM401.4 598.1C371.5 568.3 355 529 355 487.5c0-37 12.9-72.7 36.4-100.6 20.6-24.5 48.7-42.2 80-50.7v-212.6h81V227h64.7v81h-64.7v28.1c31.3 8.5 59.4 26.2 80 50.7 23.6 28 36.6 63.7 36.6 100.7 0 41.5-16.5 80.7-46.3 110.6-29.9 29.9-69.2 46.3-110.6 46.3s-80.8-16.4-110.7-46.3zM436 487.5c0 41.9 34.1 75.9 76 75.9s76-34.1 76-75.9c0-41.9-34.1-76-76-76s-76 34.1-76 76z"  horiz-adv-x="1024" />

    
    <glyph glyph-name="mail" unicode="&#58902;" d="M293.3 345.6L160.6 212.9c-11.3-11.3-11.3-23.3-11.3-32.1 0-11.9 9.4-21.9 11.3-23.8 9.6-9.6 19.6-19.6 32.1-19.6s22.5 10 32.1 19.6c16.4 16.4 41.6 39.5 66 61.9 24.5 22.5 49.9 45.8 66.7 62.5 20.7 20.7 20.7 43.5 0 64.2-20.7 20.7-43.5 20.7-64.2 0zM860.3 609.8c-15.2 18.3-42.6 21.1-61.1 6.1l-190-153.4-0.1-0.1c-43.9-36.6-104.8-40.1-144.6-8.2l-0.2 0.2-229 162.5c-20.3 14.3-48.5 9.6-63-10.6l-1.9-2.8v-0.2c-12.5-20.6-7.3-47.9 12.4-62.4L402.2 380c31.2-23.4 72.3-35.2 122.3-35.2 45.9 0 88.5 13.2 138 42.9l0.7 0.4 192 162.5c17.6 14.9 19.9 41.5 5.1 59.2zM897.7 755H126.3C54.3 755 0 700.7 0 628.7v-489.3C0 67.3 54.3 13 126.3 13h771.3c72 0 126.3 54.3 126.3 126.3V628.7c0.1 72-54.2 126.3-126.2 126.3z m39.5-615.7c0-19.2-20.3-39.5-39.5-39.5H126.3c-19.2 0-39.5 20.3-39.5 39.5V628.7c0 19.2 20.3 39.5 39.5 39.5h771.3c19.2 0 39.5-20.3 39.5-39.5v-489.4zM896.1 221.7l-0.6 0.4c-32.6 24.4-99.4 91.2-131.5 123.4l-0.1 0.1c-20.7 20.7-43.5 20.7-64.2 0-20.7-20.7-20.7-43.5 0-64.2l0.8-0.8c40.9-32.7 97.7-89.5 131.7-123.4l0.2-0.2c11.3-11.3 23.3-11.3 32.1-11.3s20.8 0 32.1 11.3 11.3 23.3 11.3 32.1 0 20.8-11.3 32.1l-0.5 0.5z"  horiz-adv-x="1024" />

    
    <glyph glyph-name="notice" unicode="&#58903;" d="M958.088482 894.973587c-2.199943 1.299966-4.999871 1.399964-7.199814 0.099997L510.100049 653.979809H205.007927c-3.999897 0-7.299812-3.299915-7.299812-7.299811v-101.197388c-34.999096-1.799954-67.898247-16.499574-93.297591-41.898918-27.199298-27.0993-42.098913-62.898376-42.098913-100.597402 0-37.799024 14.899615-73.498102 42.098913-100.597403 25.399344-25.399344 58.298495-40.098965 93.297591-41.898918v-83.197852c0-3.999897 3.299915-7.299812 7.299812-7.299811h219.294337l-64.798327-104.397305c-1.899951-3.09992-1.299966-7.199814 1.599959-9.499754l222.094266-182.395291c1.399964-1.099972 2.999923-1.699956 4.599881-1.699956 1.999948 0 4.099894 0.899977 5.499858 2.499935l46.898789 54.198601c1.299966 1.499961 1.899951 3.49991 1.799953 5.399861-0.199995 1.999948-1.099972 3.799902-2.69993 4.999871l-169.995611 138.596421 55.39857 87.797733 427.18897-155.795977c0.799979-0.299992 1.699956-0.39999 2.499935-0.39999 1.499961 0 2.899925 0.499987 4.199892 1.299966 1.999948 1.399964 3.09992 3.599907 3.09992 5.999845V888.673749c0 2.599933-1.399964 4.999871-3.599907 6.299838zM197.708115 347.58772c-26.999303 3.699904-48.598745 27.599287-48.598745 55.39857 0 27.799282 21.599442 51.698665 48.598745 55.398569v-110.797139z m86.897756 219.59433h192.995017v-310.391985h-192.995017V567.18205z m279.892773 17.699543l310.391986 168.695644v-621.883942L564.498644 244.090393V584.881593z"  horiz-adv-x="1024" />

    
    <glyph glyph-name="right-arrow" unicode="&#58904;" d="M778.5 419.8L317.1 881.2C307.2 891.1 294.2 896 281.3 896c-12.9 0-25.9-4.9-35.8-14.8-19.8-19.8-19.8-51.8 0-71.5L671.2 384 245.5-41.6c-19.8-19.8-19.8-51.8 0-71.5 19.8-19.8 51.8-19.8 71.5 0l461.4 461.4c19.8 19.7 19.8 51.7 0.1 71.5z"  horiz-adv-x="1024" />

    
    <glyph glyph-name="home" unicode="&#58905;" d="M1009.2 348l-18.7 18.7v-0.8L547.2 809.3l-0.1 0.1c-19.9 19.3-51.1 19.3-71 0L14.7 347.2c-19.6-19.6-19.6-51.6 0-71.2 9.5-9.5 22.2-14.7 35.6-14.7s26.1 5.2 35.6 14.8L512 702.9l426-426c9.5-9.5 22.2-14.7 35.6-14.7s26.1 5.2 35.6 14.7 14.8 22.2 14.8 35.6c0 13.4-5.2 26-14.8 35.5zM806.2 340.3c-27.7 0-50.2-22.5-50.2-50.2v-245.6H654V163c0 27.7-22.5 50.2-50.2 50.2H420.2c-27.7 0-50.2-22.5-50.2-50.2v-118.5H268V290.1c0 27.7-22.5 50.2-50.2 50.2-27.7 0-50.2-22.5-50.2-50.2v-295.7c0-27.7 22.5-50.2 50.2-50.2h202.4c27.7 0 50.2 22.5 50.2 50.2V112.8h83.2v-118.5c0-27.7 22.5-50.2 50.2-50.2h202.4c27.7 0 50.2 22.5 50.2 50.2V290.1c0 27.6-22.6 50.2-50.2 50.2z"  horiz-adv-x="1024" />

    
    <glyph glyph-name="logout" unicode="&#58906;" d="M1024 435.8L892.9 556.3v-76.6H490v-87.8h402.9v-76.5zM731.4 112.5c0-11.3-9.2-20.5-20.5-20.5H433V676L170.4 779.6h540.5c11.3 0 20.5-9.2 20.5-20.5v-206.3h87.8V779.6c0 48.5-39.3 87.8-87.8 87.8H87.8C39.3 867.4 0 828.1 0 779.6V92c0-48.5 39.3-87.8 87.8-87.8h82.7L433-99.4V4.3h298.4c48.5 0 87.8 39.3 87.8 87.8V318.8h-87.8v-206.3z"  horiz-adv-x="1024" />

    
    <glyph glyph-name="auth" unicode="&#58907;" d="M404.2 207.2V337.6c0 26.3-21.4 47.7-47.7 47.7-26.3 0-47.7-21.4-47.7-47.7v-130.5c0-26.3 21.4-47.7 47.7-47.7 26.3 0.1 47.7 21.5 47.7 47.8zM155.6 207.2V337.6c0 26.3-21.4 47.7-47.7 47.7-26.3 0-47.6-21.4-47.6-47.7v-130.5c0-26.3 21.4-47.7 47.6-47.7 26.3 0.1 47.7 21.5 47.7 47.8zM868.6 183.9h-67.7c51.3 32.6 85.4 89.8 85.4 155 0 101.1-82.3 183.4-183.4 183.4h-3.7c4.1 7.2 6.3 15.3 6.2 23.7 0 192.4-156.5 348.8-348.8 348.8C164.2 894.9 7.8 738.4 7.8 546c0-26.3 21.4-47.7 47.7-47.7 26.3 0 47.6 21.4 47.6 47.7 0 139.7 113.7 253.4 253.4 253.4C496.3 799.4 610 685.7 610 546c0-16 7.9-30.1 20-38.8-15.4-6.7-29.8-15.5-42.7-26H47.7C21.4 481.3 0 459.9 0 433.6 0 407.4 21.4 386 47.7 386h477.9c-4-15-6.1-30.8-6.1-47.1 0-65.1 34.1-122.4 85.4-155h-67.6c-34.9 0-67.1-11.5-93-31H49c-26.3 0-47.6-21.4-47.6-47.6 0-26.3 21.4-47.7 47.6-47.7h335.6c-1.8-9.4-2.7-19.2-2.7-29.1 0-85.7 69.7-155.4 155.4-155.4h331.4c85.7 0 155.4 69.7 155.4 155.4-0.1 85.7-69.8 155.4-155.5 155.4z m-77.6 155c0-48.6-39.5-88.1-88.1-88.1-48.6 0-88.1 39.5-88.1 88.1 0 48.6 39.5 88.1 88.1 88.1 48.5 0 88.1-39.5 88.1-88.1zM537.2 88.5h331.4c33.1 0 60.1-27 60.1-60.1s-27-60.1-60.1-60.1H537.2c-33.1 0-60.1 27-60.1 60.1 0 33.2 27 60.1 60.1 60.1z"  horiz-adv-x="1024" />

    
    <glyph glyph-name="password" unicode="&#58908;" d="M821.7 464.8H346.6V648.2c0 91.2 74.2 165.4 165.4 165.4s165.4-74.2 165.4-165.4v-80.3c0-22.8 18.5-41.2 41.2-41.2 22.8 0 41.2 18.5 41.2 41.2v80.3C759.8 784.8 648.7 896 512 896 375.3 896 264.2 784.8 264.2 648.2v-183.4h-61.9c-47.2 0-85.5-38.3-85.5-85.5v-421.8c0-47.2 38.3-85.5 85.5-85.5h619.4c47.2 0 85.5 38.3 85.5 85.5V379.3c0 47.2-38.3 85.5-85.5 85.5z m-264.8-323V117c0-24.8-20.1-44.9-44.9-44.9-24.8 0-44.9 20.1-44.9 44.9v24.8c-17.2 13.4-28.3 34.3-28.3 57.7 0 40.4 32.8 73.2 73.2 73.2 40.4 0 73.2-32.8 73.2-73.2 0-23.5-11.1-44.3-28.3-57.7z"  horiz-adv-x="1024" />

    
    <glyph glyph-name="short-msg" unicode="&#58909;" d="M824.9 554.7c-11.5 2.5-23.4 0.3-33.4-6.2C708.6 494 612 465.2 512 465.2c-99.8 0-196.4 28.8-279.3 83.3l-0.2 0.1c-20.4 13-47.7 7.3-60.8-12.8l-0.1-0.1c-13-20.4-7.3-47.7 12.8-60.8 97.3-64 210.6-97.8 327.5-97.8 117 0 230.2 33.8 327.5 97.8 20.2 13.3 25.9 40.6 12.8 60.8-6.2 9.8-15.9 16.6-27.3 19zM892.3 873.2H131.7C58.9 873.2 0 814.2 0 741.5v-526.6c0-72.7 58.9-131.7 131.7-131.7h197.5l125.2-160.3c29.3-37.5 86-37.5 115.3 0l125.2 160.3h197.5c72.7 0 131.7 58.9 131.7 131.7V741.5c-0.1 72.7-59 131.7-131.8 131.7z m43.9-642.9c0-31.5-27.1-57-60.6-57H663.5L536.7 20.4c-12.8-15.5-36.6-15.5-49.4 0L360.5 173.2H148.4c-33.5 0-60.6 25.5-60.6 57v502c0 31.5 27.1 57 60.6 57h727.2c33.5 0 60.6-25.5 60.6-57v-501.9z"  horiz-adv-x="1024" />

    
    <glyph glyph-name="my" unicode="&#58910;" d="M850.1 762.4H432.5c-23.8 0-43.1-19.3-43.1-43.1s19.3-43.1 43.1-43.1H850c48.4 0 87.7-39.4 87.7-87.7v-34.2H86.2v34.2c0 48.4 39.4 87.7 87.7 87.7h44.6c23.8 0 43.1 19.3 43.1 43.1s-19.3 43.1-43.1 43.1h-44.6C78 762.4 0 684.4 0 588.5v-408.9c0-95.9 78-173.9 173.9-173.9H850c95.9 0 173.9 78 173.9 173.9V588.5c0.1 95.9-77.9 173.9-173.8 173.9zM86.2 468h851.5v-288.5c0-48.4-39.4-87.7-87.7-87.7H174c-48.4 0-87.7 39.4-87.7 87.7V468zM588.7 320.8h269c23.8 0 43.1 19.3 43.1 43.1S881.5 407 857.7 407h-269c-23.8 0-43.1-19.3-43.1-43.1s19.4-43.1 43.1-43.1z"  horiz-adv-x="1024" />

    
    <glyph glyph-name="calendar" unicode="&#58911;" d="M263.9 232.4h46.5c28.3 0 51.2 22.9 51.2 51.2 0 28.3-22.9 51.2-51.2 51.2h-46.5c-28.3 0-51.2-22.9-51.2-51.2 0-28.3 22.9-51.2 51.2-51.2zM488.8 232.4h46.5c28.3 0 51.2 22.9 51.2 51.2 0 28.3-22.9 51.2-51.2 51.2h-46.5c-28.3 0-51.2-22.9-51.2-51.2 0-28.3 22.9-51.2 51.2-51.2zM713.6 232.4h46.5c28.3 0 51.2 22.9 51.2 51.2 0 28.3-22.9 51.2-51.2 51.2h-46.5c-28.3 0-51.2-22.9-51.2-51.2 0-28.3 22.9-51.2 51.2-51.2zM263.9 74.1h46.5c28.3 0 51.2 22.9 51.2 51.2 0 28.3-22.9 51.2-51.2 51.2h-46.5c-28.3 0-51.2-22.9-51.2-51.2 0-28.3 22.9-51.2 51.2-51.2zM488.8 74.1h46.5c28.3 0 51.2 22.9 51.2 51.2 0 28.3-22.9 51.2-51.2 51.2h-46.5c-28.3 0-51.2-22.9-51.2-51.2 0-28.3 22.9-51.2 51.2-51.2zM713.6 74.1h46.5c28.3 0 51.2 22.9 51.2 51.2 0 28.3-22.9 51.2-51.2 51.2h-46.5c-28.3 0-51.2-22.9-51.2-51.2 0-28.3 22.9-51.2 51.2-51.2zM819.2 806.9h-47.8V844.8c0 28.3-22.9 51.2-51.2 51.2C691.9 896 669 873.1 669 844.8v-37.9H355V844.8C355 873.1 332.1 896 303.8 896c-28.3 0-51.2-22.9-51.2-51.2v-37.9h-47.8C91.7 806.9 0 715.2 0 602.1v-525.3C0-36.3 91.7-128 204.8-128h614.4c113.1 0 204.8 91.7 204.8 204.8V602.1c0 113.1-91.7 204.8-204.8 204.8z m117-730.1c0-64.6-52.4-117-117-117H204.8c-64.6 0-117 52.4-117 117V453.2h848.5v-376.4z m0 464.1H87.8v62.5c0 64.6 52.4 117 117 117h47.8v-46.3c0-28.3 22.9-51.2 51.2-51.2 28.3 0 51.2 22.9 51.2 51.2v46.3h314v-46.3c0-28.3 22.9-51.2 51.2-51.2 28.3 0 51.2 22.9 51.2 51.2v46.3h47.8c64.6 0 117-52.4 117-117v-62.5z"  horiz-adv-x="1024" />

    
    <glyph glyph-name="monitor" unicode="&#58912;" d="M743.3 483.5c-0.1 0-0.1 0 0 0-83.8 0-161.9-45.1-203.7-117.7-41.9-72.6-41.8-162.7 0.1-235.2s119.9-117.5 203.6-117.5h0.1c129.7 0 235.1 105.6 235.1 235.3-0.1 129.6-105.6 235.1-235.2 235.1z m-0.2-409c-48.4-2.1-93.9 22.4-118.7 64.1-24.8 41.6-24.8 93.3 0 134.9 24.9 41.6 70.3 66.1 118.8 64C813.8 334.4 869 276.6 869 206c0-70.7-55.3-128.4-125.9-131.5zM743.2 277.1c-40.7 0-73.9-33.1-73.9-73.9 0-40.7 33.1-73.9 73.9-73.9 40.9 0 74.1 33.1 74.1 73.9 0 40.8-33.2 73.9-74.1 73.9zM912.7 58.9l-1.5-1.3c-45.5-39.8-105.2-61.7-168.1-61.7-63.2 0-122.9 21.9-168.1 61.7l-1.5 1.3-40.6-89.2-0.5-1.4c-3.8-10.5-1.6-22.2 5.7-30.6 11.6-14.3 36.1-23.5 62.4-23.5h285.4c22.5 0 50.8 7.7 63.6 25 6.9 8.5 8.4 20.5 3.8 30.4l-40.6 89.3zM1021.6 702.7c0 64.8-18.9 151.1-182.3 151.1H200.8C34.8 853.8 0 767 0 694.2l7-436v-0.2c17.5-116.2 79.1-170.3 193.8-170.3h118.6c24.2 0 43.9 19.7 43.9 43.9s-19.7 43.9-43.9 43.9H200.8c-61.4 0-94.7 13.9-106.5 89.9L87.8 695c0 28.4 0 71.2 113 71.2h638.6c94.5 0 94.5-27 94.5-64.4l2.4-99.6c1.1-24 20.7-42.8 44.8-42.8h0.1c11.7 0.3 22.6 5.1 30.7 13.6 8.1 8.5 12.4 19.6 12.1 31.3l-2.4 98.4z"  horiz-adv-x="1024" />

    
    <glyph glyph-name="time" unicode="&#58913;" d="M512 896C229.7 896 0 666.3 0 384c0-69.1 13.5-136.1 40.2-199.2 25.8-61 62.7-115.7 109.6-162.8 96.7-96.7 225.3-150 362.2-150 69.1 0 136.1 13.5 199.2 40.2 61 25.8 115.7 62.7 162.8 109.6 96.7 96.7 150 225.3 150 362.2C1024 666.3 794.3 896 512 896z m42.7-902.5v52.1c0 23.9-19.4 43.3-43.3 43.3s-43.3-19.4-43.3-43.3v-52.1c0-13.4 6.1-25.4 15.6-33.3-213.1 14-383.8 185.5-396.3 398.7 7.9-11.1 20.8-18.3 35.3-18.3h52.1c23.9 0 43.3 19.4 43.3 43.3s-19.4 43.3-43.3 43.3h-52.1c-14.6 0-27.5-7.2-35.3-18.3C99.9 622.3 270.6 793.7 483.7 807.8c-9.6-8-15.6-19.9-15.6-33.3v-52.1c0-23.9 19.4-43.3 43.3-43.3 23.5 0 43.3 19.8 43.3 43.3v52.1c0 13.4-6.1 25.4-15.7 33.4 212.8-13.4 383.5-184.2 396.9-397-7.9 10-20.2 16.5-34 16.5h-52.1c-23.9 0-43.3-19.4-43.3-43.3s19.4-43.3 43.3-43.3h51.5c14.1 0 26.6 6.5 34.6 16.7-13.3-213-184.2-384-397.2-397.2 9.7 7.9 16 20 16 33.2zM512 670.5c-23.9 0-43.3-19.4-43.3-43.3V448L358.4 558.2c-16.7 16.7-44.8 16.7-61.5 0-8.1-8.1-12.6-19-12.6-30.8 0-11.7 4.5-22.7 12.6-30.8l183.7-183.7 0.3-0.3c7.9-8.1 18.9-13.2 31.1-13.2 23.9 0 43.3 19.7 43.3 43.9V627.1c0 23.9-19.4 43.4-43.3 43.4z"  horiz-adv-x="1024" />

    
    <glyph glyph-name="dict" unicode="&#58914;" d="M864.7 896H159.3C97.7 896 47.5 845.8 47.5 784.2v-800.4c0-61.7 50.2-111.8 111.8-111.8h705.4c61.7 0 111.8 50.2 111.8 111.8V784.2C976.5 845.8 926.3 896 864.7 896z m22.6-111.8v-800.4c0-12.5-10.2-22.7-22.6-22.7h-526V806.8h526c12.5 0 22.6-10.1 22.6-22.6zM249.4 806.8v-845.7h-90c-12.5 0-22.7 10.2-22.7 22.7V784.2c0 12.5 10.2 22.7 22.7 22.7h90zM556.3 258.3H441.9c-24.6 0-44.6-20-44.6-44.6s20-44.6 44.6-44.6h114.4c24.6 0 44.6 20 44.6 44.6s-20 44.6-44.6 44.6zM666.4 413.4H441.9c-24.6 0-44.6-20-44.6-44.6s20-44.6 44.6-44.6h224.5c24.6 0 44.6 20 44.6 44.6s-20 44.6-44.6 44.6zM781.9 568.5h-340c-24.6 0-44.6-20-44.6-44.6s20-44.6 44.6-44.6h340c24.6 0 44.6 20 44.6 44.6s-20 44.6-44.6 44.6z"  horiz-adv-x="1024" />

    
    <glyph glyph-name="phone" unicode="&#58915;" d="M983.353969 179.269993L859.466068 303.157895c-24.797578 24.797578-54.494678 37.596328-85.791622 37.196367-31.296944-0.399961-61.194024-13.998633-86.491554-39.396152l-56.994434-56.994435c-3.099697-3.099697-7.899229-3.799629-11.698857-1.799824l-0.199981 0.09999-4.19959 2.099795c-6.099404 3.099697-11.898838 5.999414-16.398398 8.799141-41.995899 26.497412-80.492139 57.594376-117.788498 94.890733-21.39791 21.497901-41.895909 44.295674-60.794063 67.69339-20.398008 25.69749-35.296553 47.695342-46.89542 69.393223-3.599648 6.799336-2.199785 15.298506 3.399668 20.697979 11.598867 11.298897 23.297725 22.897764 34.596621 34.496631l18.798165 18.798164c26.097451 26.097451 39.996094 56.694463 40.096084 88.391368 0.09999 31.696905-13.498682 62.193926-39.496143 88.191388l-60.494092 60.494092c-7.399277 7.399277-13.998633 13.998633-20.198028 20.597989l-0.299971 0.29997c-3.399668 3.399668-6.799336 6.899326-10.099013 10.199004-3.399668 3.499658-6.899326 7.099307-10.398985 10.598965-7.999219 7.999219-15.298506 14.898545-21.39791 20.597989C281.822478 883.20125 252.225369 896 220.928425 896c-31.296944-0.09999-61.294014-13.098721-86.891515-37.596328l-77.292451-77.292452C25.247534 750.014256 7.349282 711.917977 3.349673 667.622303c-5.899424-67.493409 13.598672-130.487257 28.797188-172.083195 36.096475-98.790353 90.791134-190.381408 172.083195-288.271849 20.897959-24.997559 43.195782-49.395176 66.293526-72.592911 83.691827-83.791817 180.182404-152.285128 286.971975-203.680109 52.194903-24.697588 122.288058-53.794747 201.880285-58.694268 4.39957-0.19998 8.69915-0.299971 12.898741-0.299971 57.094424 0 104.889757 20.497998 142.086124 61.094034l0.999902 0.999902 0.799922 0.899912c11.398887 13.698662 24.997559 26.797383 37.896299 38.996192 10.099014 9.499072 20.098037 19.498096 29.49712 29.497119 24.997559 26.097451 38.29626 56.694463 38.29626 88.591349-0.09999 31.896885-13.398692 62.093936-38.496241 87.191485z m-131.487159-186.98174l-0.799922-0.899912c-22.397813-24.497608-50.095108-34.996582-87.091495-33.096768-50.89503 3.099697-101.590079 18.198223-169.583439 50.495069-97.79045 47.095401-186.281808 109.989259-262.974319 186.681769-21.29792 21.39791-41.895909 43.995704-61.294014 67.193438l-1.099893 1.299873c-73.992774 89.39127-123.587931 172.383166-155.984767 261.274485-20.198028 55.19461-27.297334 95.590665-23.897666 134.986818 2.099795 23.497705 11.298897 43.095791 28.197246 59.694171L194.031052 796.609706l0.499951 0.499951c17.798262 16.99834 34.696612 17.19832 51.594961 0.399961l1.399864-1.299873c9.099111-8.49917 13.898643-13.098721 19.698076-18.898154 2.899717-2.899717 5.999414-6.099404 9.499072-9.699053 3.299678-3.399668 6.699346-6.899326 10.298995-10.498975 6.799336-7.199297 13.998633-14.498584 21.197929-21.597891l60.494093-60.494092c19.298115-19.298115 19.098135-35.196563-0.599942-54.894639L349.015916 601.228786l-0.09999-0.19998c-15.798457-16.298408-32.096866-32.396836-48.595254-47.795333l-8.49917-7.899228c-17.598281-16.398399-22.797774-42.29587-12.998731-64.293722l4.699541-10.598965c15.498486-34.796602 37.096377-69.093253 67.99336-108.189434 20.997949-25.997461 43.595743-51.195 67.293429-74.992677 41.895909-41.895909 85.391661-76.892491 132.787032-106.889561 4.599551-2.799727 9.199102-5.499463 15.498487-8.699151 2.099795-1.099893 7.999219-4.0996 10.798945-5.499463l1.199883-0.599941c2.499756-1.299873 5.099502-2.699736 7.899228-4.0996 3.299678-1.699834 4.699541-2.399766 6.199395-3.199687l6.199395-3.299678c24.797578-13.298701 54.894639-8.899131 74.792696 11.098916l73.992774 73.892784c18.198223 18.198223 33.7967 18.898154 50.595059 2.199785l123.887901-123.887901c17.898252-17.898252 17.498291-35.996485-1.099892-55.294601l-0.199981-0.19998c-7.599258-8.199199-14.098623-14.598574-26.697392-26.697393-20.597988-19.198125-31.796895-30.697002-42.795821-43.795723z"  horiz-adv-x="1024" />

    
    <glyph glyph-name="search" unicode="&#58916;" d="M1003.4-40.6L808.9 153.9c64.8 78.4 103.7 179 103.7 288.6C912.6 693 709.5 896 459.1 896S5.6 693 5.6 442.5 208.6-11 459.1-11c103.9 0 199.6 35 276.1 93.8L931-113c20-20 52.4-20 72.4 0 20 20 20 52.4 0 72.4zM459.1 76.8c-202 0-365.7 163.7-365.7 365.7S257.1 808.2 459.1 808.2s365.7-163.7 365.7-365.7-163.7-365.7-365.7-365.7z"  horiz-adv-x="1024" />

    
    <glyph glyph-name="tenant" unicode="&#58917;" d="M879.7 226.1l-20.5 27.4c-73.4 100-177.5 159.9-296.6 171.5v79.7H646c33.2 0 63.4 12.5 85.2 35.3 20.8 21.8 32.3 51 32.3 82.2V778.5C763.5 843.3 710.8 896 646 896H385.5C320.7 896 268 843.3 268 778.5v-156.3c0-64.8 52.7-117.5 117.5-117.5h90.9v-79.8c-69-7.1-134.9-31-192.8-70.4-64.6-44-116.3-105-150.2-177.3-67.9-16.4-118.5-77.6-118.5-150.5 0-85.3 69.4-154.7 154.7-154.7 37.8 0 76.6 16.5 106.4 45.4 31.1 30.1 48.3 68.9 48.3 109.3 0 65.9-41.4 122.2-99.5 144.5 58.6 104.4 169.7 169.7 294.6 169.7 97.2 0 185.3-40.5 251-114.8h-50c-23.7 0-43.1-19.3-43.1-43.1s19.3-43.1 43.1-43.1h288.7V226H879.7zM354.1 622.2V778.5c0 17.3 14.1 31.4 31.4 31.4H646c17.3 0 31.4-14.1 31.4-31.4v-156.3c0-17.3-14.1-31.4-31.4-31.4H385.5c-17.3 0-31.4 14.1-31.4 31.4zM169.6 87.9c33 0 68.6-26.2 68.6-68.6 0-41.7-26.9-68.6-68.6-68.6S101-22.4 101 19.3c0 42.3 35.6 68.6 68.6 68.6zM640.1-77.5c0-23.7 19.3-43.1 43.1-43.1h325.9v86.1H683.2c-23.7 0.1-43.1-19.2-43.1-43zM513.6 56.5c0-23.7 19.3-43.1 43.1-43.1h452.5v86.1H556.7c-23.8 0.1-43.1-19.3-43.1-43z"  horiz-adv-x="1024" />

    
    <glyph glyph-name="statistics" unicode="&#58918;" d="M178.2 211.5h73.6c15.2 0 29.4 7.9 37.4 20.8l51.9 95.8 87.1-211.7c7.1-15.9 22.9-26 40.1-26 0.8 0 1.7 0 2.5 0.1 18.2 1 33.9 13.2 39.4 30.6l107.9 433 100.6-311.9c5.6-18.6 22.7-31.4 42.1-31.4h129.9c12.8-14.3 31.3-23.3 52-23.3 38.5 0 69.7 31.2 69.7 69.7s-31.2 69.7-69.7 69.7c-22.9 0-43.3-11.1-56-28.2h-93.1L661.5 716c-5.5 18.5-22.5 31.2-41.7 31.4-19.3 0.2-36.4-12.3-42.3-30.7L461.3 257.8l-73.8 181.9c-6.6 14.9-20.9 24.9-37.2 25.9-16.3 1.1-31.8-6.9-40.3-20.7l-82.7-145.6h-49.1c-24.3 0-43.9-19.7-43.9-43.9s19.7-43.9 43.9-43.9zM980.1 6H157.5c-38.4 0-69.6 31.2-69.6 69.6V805.9c0 24.3-19.7 43.9-43.9 43.9S0 830.2 0 805.9v-730.3c0-86.8 70.6-157.5 157.5-157.5h822.6c24.3 0 43.9 19.7 43.9 43.9s-19.7 44-43.9 44z"  horiz-adv-x="1024" />

    
    <glyph glyph-name="set-up" unicode="&#58919;" d="M513.2 583.3c-109.9 0-199.3-89.4-199.3-199.3s89.4-199.3 199.3-199.3S712.5 274.1 712.5 384s-89.4 199.3-199.3 199.3z m0-312.7c-62.5 0-113.4 50.9-113.4 113.4 0 62.5 50.9 113.4 113.4 113.4 62.5 0 113.4-50.9 113.4-113.4 0-62.5-50.9-113.4-113.4-113.4zM960.1 284.6l-65.2 36.9c2.7 19.5 5.2 39.8 5.2 62.5 0 20.1-2.5 42.4-5.3 62.5l65 36.7 0.3 0.2c18.4 11.1 31.1 28.1 35.5 47.8 4.1 18.3 0.7 37-9.7 52.8l-62.3 109.1-0.1 0.2c-11.1 18.4-28.1 31.1-47.9 35.5-18.3 4.1-37 0.7-52.7-9.7l-64.7-36.5c-34.3 27.1-71.5 48.7-108.3 62.8V821.8C650 862.7 616.7 896 575.7 896h-125c-40.9 0-74.2-33.3-74.2-74.2v-76.3c-42.6-16.1-78.2-36.6-108.4-62.5l-64.5 39.3-0.9 0.5c-37.3 18.7-81.5 6-102.8-29.5L37.2 583.8c-10.3-17.2-13.2-37.2-8.1-56.2 5-18.8 17.6-35 34.3-44.3l65.9-37.2c-0.2-8.7-0.8-17.9-1.4-26.8-0.8-11.7-1.6-23.8-1.6-35.2 0-20.1 2.5-42.4 5.3-62.5l-65-36.7-0.3-0.2c-18.4-11.1-31.1-28.1-35.5-47.9-4.1-18.3-0.7-37 9.7-52.7L102.8 75l0.1-0.2c11.1-18.4 28.1-31.1 47.9-35.5 18.3-4.1 37-0.7 52.7 9.7l64.6 36.5c34.3-27.1 71.4-48.7 108.3-62.8v-76.3c0-40.9 33.3-74.2 74.2-74.2h125.1c40.9 0 74.2 33.3 74.2 74.2v76.3c42.7 16.1 78.4 36.7 108.6 62.7l64.5-36.5c17.2-10.3 37.2-13.1 56.2-8 18.8 5 35 17.6 44.3 34.2L986 184c10.4 15.7 13.8 34.4 9.7 52.7-4.5 19.8-17.1 36.8-35.6 47.9zM856.2 127.9l-111 64.7-6.4-7.3c-41.9-47.9-99.2-81.2-165.8-96.4l-9.1-2.1v-129H462.4V87.3l-9.6 1.7c-62.2 11.3-120.8 45.5-165.3 96.3l-6.4 7.3L170.4 128l-50.9 89.1 110.8 64.6-3 9c-9.7 29.1-15 62.2-15 93.2 0 30.7 5.1 63.2 15.1 96.7l2.6 8.8L119.5 554l50.9 89.1 110.7-64.6 6.4 7.3c41.9 47.9 99.2 81.2 165.8 96.4l9.1 2.1V810.1H564v-129.4l9.6-1.7c62.2-11.3 120.8-45.5 165.3-96.3l6.4-7.3L856 640l50.9-89.1-110.5-64.5 2.6-8.8c10-33.5 15.1-66 15.1-96.7 0-30.7-5.1-63.2-15.1-96.7l-2.6-8.8L906.7 211l-50.5-83.1z"  horiz-adv-x="1024" />

    
    <glyph glyph-name="user" unicode="&#58920;" d="M953.85685 121.275657c-3.899619 20.597988-18.098233 33.89669-35.996485 33.896689h-1.799824c-17.998242 0-32.596817 14.598574-32.596817 32.596817 0 3.699639 1.899814 9.699053 2.899717 11.998828 8.099209 18.398203 1.599844 40.496045-15.598477 52.394884l-0.499951 0.29997-51.394981 28.297237-1.099892 0.499951c-5.399473 2.299775-11.198906 3.399668-17.098331 3.399668-12.098818 0-24.197637-4.999512-32.196855-13.398691-7.299287-7.499268-20.897959-16.698369-26.897374-16.69837s-19.498096 9.099111-26.997363 16.89835c-8.099209 8.59916-20.298018 13.698662-32.496827 13.698662-5.599453 0-11.098916-1.099893-16.298408-3.099697l-1.599844-0.499951-52.694854-28.997168-2.199785-1.399864c-16.298408-11.298897-22.497803-33.496729-14.498584-51.594961 0.999902-2.199785 2.999707-8.099209 2.999707-12.198809 0-17.998242-14.598574-32.596817-32.596817-32.596816h-1.999805c-17.798262 0-31.796895-13.398692-35.696514-34.096671-0.19998-0.999902-4.39957-23.497705-4.39957-42.49585 0-15.798457 3.099697-34.396641 4.0996-40.496045 0.09999-0.699932 0.19998-1.199883 0.19998-1.399863l0.09999-0.499952c3.899619-20.597988 18.098233-33.89669 35.996485-33.896689h1.699834c17.998242 0 32.596817-14.598574 32.596817-32.596817 0-3.699639-1.899814-9.699053-2.899717-11.998828-8.099209-18.298213-1.599844-40.296065 15.398496-52.394884l0.499952-0.29997 50.495068-28.097256 1.099893-0.499952c5.399473-2.299775 11.198906-3.399668 17.09833-3.399668 12.398789 0 24.597598 5.299482 32.696807 14.098624 7.299287 7.999219 21.39791 17.798262 27.397325 17.798261 6.199395 0 20.298018-9.999024 27.597305-18.198222 7.999219-8.899131 20.398008-14.298604 32.996777-14.298604 6.099404 0 11.898838 1.299873 18.198223 3.999609l0.499951 0.199981 50.99502 28.297236 2.199785 1.399864c16.298408 11.298897 22.497803 33.496729 14.498585 51.494971-0.899912 2.099795-2.899717 8.099209-2.899717 12.198809 0 17.998242 14.598574 32.596817 32.596816 32.596816h1.999805c17.698272 0 31.696905 13.298701 35.696514 33.89669l0.199981 0.999903v0.09999c2.799727 15.798457 4.39957 30.497022 4.39957 41.395957-0.19998 19.298115-4.599551 42.49585-4.699541 42.695831zM824.269505-50.107607l-21.897862-12.098818c-2.799727 2.499756-6.199395 5.299482-10.099013 8.199199-17.998242 13.298701-35.796504 19.998047-52.894835 19.998047-16.99834 0-34.696612-6.699346-52.594864-19.798066-3.499658-2.599746-6.799336-5.299482-9.899033-7.999219l-20.398008 11.398887c1.699834 6.999316 2.499756 13.598672 2.499756 19.898056 0 44.295674-31.096963 82.391954-73.492823 91.891027-0.699932 5.399473-1.399863 11.898838-1.399863 17.19832 0 5.599453 0.699932 12.098818 1.299873 17.198321 42.49585 9.499072 73.492823 47.595352 73.492823 91.891026 0 6.199395-0.799922 12.79875-2.399766 19.698076l23.197735 12.69876c2.799727-2.299775 6.199395-4.999512 10.099013-7.799238 17.598281-12.59877 34.996582-18.998145 51.594962-18.998145 16.398399 0 33.596719 6.299385 51.195 18.598184 3.799629 2.599746 7.099307 5.299482 9.999024 7.699248l21.597891-11.998828c-1.699834-6.999316-2.499756-13.598672-2.499756-19.898057 0-44.295674 31.096963-82.391954 73.492823-91.891026 0.699932-5.199492 1.299873-11.698858 1.299873-17.198321 0-5.399473-0.699932-11.898838-1.299873-17.19832-42.49585-9.399082-73.692803-47.395372-73.692804-91.791036 0.399961-6.199395 1.199883-12.79875 2.799727-19.698077zM792.972561 596.229274C792.972561 757.713505 664.485109 889.800605 504.500732 895.700029V896h-10.998926c-39.596133 0-78.192364-7.699248-114.688799-22.797774-36.596426-15.098526-69.293233-36.996387-97.290499-64.993653-27.997266-28.097256-49.895127-60.794063-64.993653-97.390489-15.198516-36.596426-22.797774-75.192657-22.797774-114.78879 0-53.994727 14.698565-106.889562 42.59584-152.88507 22.997754-38.09628 54.494678-70.693096 91.691046-95.490675-72.592911-30.397032-134.986818-79.692218-181.482277-143.585977-52.094913-71.692999-80.092178-156.484718-80.79211-245.476028v-5.999414c0.09999-6.899326 0.999902-13.298701 1.799824-19.598086 0.499951-3.899619 0.999902-7.599258 1.299873-11.398887l0.899912-9.999024h1.999805c5.899424-16.498389 21.597891-27.997266 39.896104-27.997266 18.298213 0 33.99668 11.498877 39.896104 27.997266h4.19959l-0.999903 11.898838c-0.399961 4.499561-0.999902 8.799141-1.499853 12.998731-0.899912 6.299385-1.699834 12.298799-1.699834 18.298213 0 91.391075 35.496534 177.282687 99.990235 241.876379 63.59379 63.59379 151.785177 100.090226 241.876379 100.090226l33.296749 3.299677C678.483742 316.856557 792.972561 444.144127 792.972561 596.229274zM493.401816 809.708427c117.788497 0 213.579143-95.790645 213.579143-213.579143s-95.790645-213.579143-213.579143-213.579142-213.579143 95.790645-213.579142 213.579142S375.613319 809.708427 493.401816 809.708427zM739.677766 166.771214c-48.395274 0-87.791427-39.396153-87.791427-87.791427s39.396153-87.791427 87.791427-87.791426 87.791427 39.396153 87.791426 87.791426-39.396153 87.791427-87.791426 87.791427z m0-114.188849c-14.498584 0-26.297432 11.798848-26.297432 26.397422 0 14.498584 11.798848 26.297432 26.297432 26.297432s26.397422-11.798848 26.397422-26.297432c-0.19998-14.598574-11.998828-26.397422-26.397422-26.397422z"  horiz-adv-x="1024" />

    
    <glyph glyph-name="wechat" unicode="&#58921;" d="M783.4 339.8c-32.7 0-59.3-26.6-59.3-59.3 0-32.7 26.6-59.3 59.3-59.3 32.7 0 59.3 26.6 59.3 59.3 0 32.7-26.6 59.3-59.3 59.3zM572.5 280.5m-59.3 0a59.3 59.3 0 1 1 118.6 0 59.3 59.3 0 1 1-118.6 0ZM1022.8 221.6c0 50-13.8 99.7-40 143.5-23.6 39.5-57.1 74.4-97.4 101.3 2.1 15.3 3.2 30.8 3.2 46.2 0 102.8-46.5 199.4-130.8 271.8C674.1 856.4 563 896 444.9 896S215.7 856.4 132 784.5C47.6 712.1 1.2 615.5 1.2 512.7c0-107.2 52.1-209.6 143.3-282.2l-15.4-148.4 143.9 77c23.6-8.6 48-15.3 72.7-20.2C365.2 77 407 21.3 464.1-18.9c61.4-43.1 135.3-65.9 213.8-65.9 48.4 0 95 8.7 138.7 25.8l129-69L931 13.4c59.3 56.7 91.8 130.4 91.8 208.2z m-689.7 8.3c-12.3 3.4-24.5 7.3-36.3 11.8l-30 11.1-36-19.2 3.7 35.6-31.3 23.9c-36.9 28.1-65.8 61.4-85.9 99.2-20.3 38-30.6 78.5-30.6 120.4 0 164.2 160.7 297.7 358.1 297.7s358.1-133.6 358.1-297.7c0-1.8 0-3.6-0.1-5.4-39.6 13.8-81.6 20.8-125 20.8-91.8 0-178.1-31.6-243.2-89.1-63.3-56-99.1-130-101.5-209.1z m534.4-158.8l-26.1-23.9 2.5-23.8-22.5 12-30.8-12.6c-35.3-14.6-73.2-22-112.7-22-143 0-259.3 99.1-259.3 220.8 0 121.8 116.3 220.8 259.3 220.8s259.3-99.1 259.3-220.8c0.1-55.8-24.7-109.2-69.7-150.5zM533.634121 557.659471a70.2 70.2 0 1 1 99.276059 99.279525 70.2 70.2 0 1 1-99.276059-99.279525ZM256.834606 557.6663a70.2 70.2 0 1 1 99.276059 99.279525 70.2 70.2 0 1 1-99.276059-99.279525Z"  horiz-adv-x="1024" />

    
    <glyph glyph-name="frequency" unicode="&#58922;" d="M0 769.8v-214c0-23.8 19.3-43.1 43.1-43.1s43.1 19.3 43.1 43.1V731.2c0 14 11.4 25.4 25.4 25.4h800.8c14 0 25.4-11.4 25.4-25.4v-175.4c0-23.8 19.3-43.1 43.1-43.1s43.1 19.3 43.1 43.1v214c0 40.3-32.7 73-73 73H73c-40.3 0-73-32.7-73-73zM912.4 11.4H111.6c-14 0-25.4 11.4-25.4 25.4V212.2c0 23.8-19.3 43.1-43.1 43.1C19.3 255.2 0 236 0 212.2v-214c0-40.3 32.7-73 73-73h878c40.3 0 73 32.7 73 73v214c0 23.8-19.3 43.1-43.1 43.1s-43.1-19.3-43.1-43.1v-175.4c0.1-14-11.3-25.4-25.4-25.4zM258 492.5l149.1-457.9L568 311.7l91.1-114.3 112.6 247.7L819 344.9h84.9c23.8 0 43.1 19.3 43.1 43.1s-19.3 43.1-43.1 43.1h-30.4L770.1 650 638.9 361.1l-82 103-127.4-219.5-161.4 495.5L139 431h-19c-23.8 0-43.1-19.3-43.1-43.1s19.3-43.1 43.1-43.1h76.4L258 492.5z"  horiz-adv-x="1024" />

    
    <glyph glyph-name="supplier" unicode="&#58923;" d="M731.4 376.1h-66.6v72.4h52.1v79.7h-52.1v80.5l-81.6 3.3v-83.8h-44.7v80.5l-82 3.3v-83.8H429c6.5 17.3 12.4 34.9 17.6 52.5l4.9 16.5-79.2 25.3-5-17.4c-22.8-79.7-66.3-155.5-99.5-199.9l-7.5-10 49.6-72.8 14.8 18.7c2.1 2.7 4.2 5.4 6.2 8v-193.5h83v11.2l20.2-24 13.4 11.3c33.8 28.4 78.1 73.3 107.8 109.3l3.5 4.2 8.8-8.5c33.5-32.4 65.8-66.9 96-102.5l14-16.4 52.5 67.2-10.1 11c-20.5 22.3-50.3 52.8-75.4 77.5h86.7v80.2zM414.1 233.2V296H477c-19.2-21.8-42.4-44.9-62.9-62.8z m42.3 215.3v-72.4h-42.3v72.4h42.3z m82.1-72.4v72.4h44.7v-72.4h-44.7z m24.6-96.5l-19 16.4h35.1l-16.1-16.4zM981.3 426.7H813.7c-23.5 0-42.7-19.2-42.7-42.7 0-23.5 19.2-42.7 42.7-42.7h167.6c23.5 0 42.7 19.2 42.7 42.7 0 23.5-19.2 42.7-42.7 42.7zM109.7 508.9c23.5 0 42.7 19.2 42.7 42.7V660.5c0 45.8 41 83.1 91.4 83.1h536.3c50.4 0 91.4-37.3 91.4-83.1v-108.8c0-23.5 19.2-42.7 42.7-42.7 23.5 0 42.7 19.2 42.7 42.7V660.5C957 753.4 877.7 829 780.2 829H243.8C146.3 829 67 753.4 67 660.5v-108.8c0-23.6 19.2-42.8 42.7-42.8zM253 384c0 23.5-19.2 42.7-42.7 42.7H42.7C19.2 426.7 0 407.5 0 384c0-23.5 19.2-42.7 42.7-42.7h167.6c23.5 0 42.7 19.2 42.7 42.7zM914.3 259.1c-23.5 0-42.7-19.2-42.7-42.7v-91.1c0-55.6-41-100.8-91.4-100.8H243.8c-50.4 0-91.4 45.2-91.4 100.8v91.1c0 23.5-19.2 42.7-42.7 42.7-23.5 0-42.7-19.2-42.7-42.7v-91.1C67 22.6 146.3-61 243.8-61h536.3c97.5 0 176.8 83.5 176.8 186.2v91.1c0.1 23.6-19.1 42.8-42.6 42.8z"  horiz-adv-x="1024" />

    
    <glyph glyph-name="equipment" unicode="&#58924;" d="M277.7 427.4h-72.1c-23.9 0-43.4-19.5-43.4-43.4s19.5-43.4 43.4-43.4h72.1c23.9 0 43.4 19.5 43.4 43.4-0.1 23.9-19.5 43.4-43.4 43.4zM836.4 427.4H439.9c-23.9 0-43.4-19.5-43.4-43.4s19.5-43.4 43.4-43.4h396.5c23.9 0 43.4 19.5 43.4 43.4s-19.5 43.4-43.4 43.4zM836.4 715.8H439.9c-23.9 0-43.4-19.5-43.4-43.4S416 629 439.9 629h396.5c23.9 0 43.4 19.5 43.4 43.4s-19.5 43.4-43.4 43.4zM277.7 715.8h-72.1c-23.9 0-43.4-19.5-43.4-43.4s19.5-43.4 43.4-43.4h72.1c23.9 0 43.4 19.5 43.4 43.4s-19.5 43.4-43.4 43.4zM439.9 52.2h396.5c23.9 0 43.4 19.5 43.4 43.4S860.3 139 836.4 139H439.9c-23.9 0-43.4-19.5-43.4-43.4s19.5-43.4 43.4-43.4zM205.6 52.2h72.1c23.9 0 43.4 19.5 43.4 43.4S301.6 139 277.7 139h-72.1c-23.9 0-43.4-19.5-43.4-43.4s19.5-43.4 43.4-43.4zM908.5 860h-793C51.8 860 0 808.2 0 744.5v-721C0-40.2 51.8-92 115.5-92h793.1c63.7 0 115.5 51.8 115.5 115.5v721C1024 808.2 972.2 860 908.5 860zM86.7 196.4h749.7c23.9 0 43.4 19.5 43.4 43.4s-19.5 43.4-43.4 43.4H86.7V484.8h749.7c23.9 0 43.4 19.5 43.4 43.4s-19.5 43.4-43.4 43.4H86.7V744.5c0 15.8 12.9 28.7 28.7 28.7h793.1c15.8 0 28.7-12.9 28.7-28.7v-721c0-15.8-12.9-28.7-28.7-28.7h-793c-15.8 0-28.7 12.9-28.7 28.7V196.4z"  horiz-adv-x="1024" />

    
    <glyph glyph-name="number" unicode="&#58925;" d="M951 842.8H73c-40.3 0-73-32.7-73-73v-214c0-23.8 19.3-43.1 43.1-43.1s43.1 19.3 43.1 43.1V731.2c0 14 11.4 25.4 25.4 25.4h800.8c14 0 25.4-11.4 25.4-25.4v-175.4c0-23.8 19.3-43.1 43.1-43.1s43.1 19.3 43.1 43.1v214c0 40.3-32.7 73-73 73zM980.9 255.2c-23.8 0-43.1-19.3-43.1-43.1v-175.4c0-14-11.4-25.4-25.4-25.4H111.6c-14.1 0-25.4 11.4-25.4 25.4V212.2c0 23.8-19.3 43.1-43.1 43.1C19.3 255.2 0 236 0 212.2v-214c0-40.3 32.7-73 73-73h878c40.3 0 73 32.7 73 73v214c0 23.8-19.3 43-43.1 43zM204.8 281.6L262 444.9c2 5.8 3.1 11.2 3.1 16.2 0 7.9-2.4 14.1-7.3 18.8-4.6 4.4-10.6 6.5-18.2 6.5h-56.9l-19.4-37h46.1L152 281.6h52.8zM390.7 356.2c-32-27.8-63.3-47.9-93.8-60.3l-17.6-58.2h213.3l21 59.5H373.9c40.2 10.8 76 29.4 107.5 56 37.3 31.5 56 65.5 56 102.2 0 33.1-16.1 55.2-48.2 66.2-16.9 5.9-42.9 8.8-78 8.8-33.6 0-57.6-2.7-71.9-8.2-21.2-7.9-31.9-23.2-31.9-46 0-13.9 5.6-25.6 16.8-35.1 10.6-9.1 23-13.7 37.2-13.7 14.4 0 27 4.6 37.6 13.7 11.3 9.5 17 21.2 17 35.1 0 2-0.3 5-1 8.8h2.7c20.6 0 30.9-13.4 30.9-40-0.3-25.9-19.5-55.4-57.9-88.8zM669.9 305.4c-13.7 11.6-29.9 17.4-48.6 17.4-18.3 0-34.3-5.8-48.1-17.4-14.4-12.3-21.7-27.6-21.7-45.9 0-18.1 7.2-33.4 21.7-45.9 13.7-11.8 29.9-18.1 48.6-19 35.9-1.6 67.8-0.2 95.6 4.2 43.8 6.9 78.8 20.8 104.8 41.7 31.2 25.2 46.7 58.5 46.7 100.1 0 19.5-7 39.1-20.9 58.6-12.9 18.3-28.4 32.3-46.7 42l91.4 133.1H621.8l-29-75.3H737l-76.6-93.5c21.5-1.9 41.5-10.2 60.2-24.8 22.2-17.6 33.3-38.9 33.3-63.9 0-21.5-6.2-39.9-18.5-55.2-12.7-15.8-28.9-24.3-48.6-25.3 3.2 7 4.8 14.8 4.8 23.2-0.1 18.2-7.3 33.5-21.7 45.9z"  horiz-adv-x="1024" />

    
    <glyph glyph-name="toggle" unicode="&#58926;" d="M657.3 751.9H42.7C19.1 751.9 0 771 0 794.6s19.1 42.7 42.7 42.7h614.6c23.6 0 42.7-19.1 42.7-42.7s-19.1-42.7-42.7-42.7zM981.3 341.3H366.7c-23.6 0-42.7 19.1-42.7 42.7s19.1 42.7 42.7 42.7h614.6c23.6 0 42.7-19.1 42.7-42.7s-19.1-42.7-42.7-42.7zM657.3-69.3H42.7C19.1-69.3 0-50.1 0-26.6c0 23.6 19.1 42.7 42.7 42.7h614.6c23.6 0 42.7-19.1 42.7-42.7 0-23.5-19.1-42.7-42.7-42.7z"  horiz-adv-x="1024" />

    


  </font>
</defs>
</svg>
