<svg xmlns="http://www.w3.org/2000/svg" viewBox="0 0 800 599.33"><defs><style>.cls-1{fill:#f0f0f0;}.cls-2{fill:#d80d19;}.cls-3{fill:#d2d2d2;}.cls-4{fill:#d8d8d8;}.cls-5{fill:#c6c6c6;}.cls-6{fill:#cacaca;}.cls-7{fill:#e7e7e7;}.cls-8{fill:#e2e2e2;}.cls-10,.cls-9{fill:none;stroke:#b2b2b2;stroke-miterlimit:10;}.cls-10{stroke-dasharray:2.99 2.99;}.cls-11{fill:#b7b7b7;}.cls-12{fill:#949494;}.cls-13{fill:gray;}.cls-14{fill:#717171;}.cls-15{fill:#747474;}.cls-16{fill:#727272;}.cls-17{fill:#7b7b7b;}.cls-18{fill:#b6b6b6;}.cls-19{fill:#cbcbcb;}.cls-20{fill:#ccc;}.cls-21{fill:#bdbdbd;}.cls-22{fill:#fff;}.cls-23{fill:#a8a8a8;opacity:0.5;}.cls-24{fill:#aeaeae;}.cls-25{fill:#7c7c7c;}</style></defs><title>404</title><g id="图层_2" data-name="图层 2"><g id="图层_1-2" data-name="图层 1"><path class="cls-1" d="M121,550.38s-6.77-38.93,22-84.63c0,0,11.85-20.31-3.39-37.24,0,0-11.85-15.23-38.93,0S4.19,445.44.81,431.9-.89,393,122.68,320.18c0,0,106.63-64.32-3.39-82.94,0,0-82.94-13.54-59.24-71.09S366.42,5.35,368.11,5.35,449.36-21.73,432.43,46c-16.11,64.46-47.57,78.29,47.32,82.39a185.61,185.61,0,0,0,28.87-1C545.94,123.2,650.07,112,691.41,112c48.84,0,78.89,39.15-27.36,109.93a131.42,131.42,0,0,1-22.14,11.75c-19.16,8-59.44,31.86-18.21,79.74,52.47,60.94,111.71,198,10.16,230.2,0,0-38.93,6.77-72.79,3.39Z"/><path class="cls-2" d="M196.75,184.44a5.08,5.08,0,1,0,5.08,5.07A5.07,5.07,0,0,0,196.75,184.44Z"/><path class="cls-2" d="M291.88,177.37V105.28H270v0l-.21,0H254.82a5.23,5.23,0,1,0,0,10.45h9.77l0,.07a4.4,4.4,0,0,1-.71,8.74H245.67a5.07,5.07,0,1,0,0,10.14h7.17c-1.19,1.75-2.4,3.52-3.67,5.33Q240,153.06,230,165.19H219.2a5.22,5.22,0,1,0,0,10.44h6.48a4.41,4.41,0,1,1,0,8.81H211.8a5.08,5.08,0,1,0,0,10.15h58.55v24.18h21.53V194.59h16.05V177.37Zm-21.53,0H240.6q13.11-16.26,19.67-25.64a164.47,164.47,0,0,0,10.08-16Z"/><path class="cls-2" d="M364.45,103.38a42.48,42.48,0,0,0-14.61,2.4H328.78a5.23,5.23,0,0,0,0,10.45h12.55a4.41,4.41,0,0,1,4.41,4.4v.87a4.42,4.42,0,0,1-4.41,4.41H317a5.07,5.07,0,1,0,0,10.14h8.43a108.28,108.28,0,0,0-3.19,27.84q0,56.85,40,56.85,20.07,0,30.69-15.49t10.63-44Q403.57,103.38,364.45,103.38ZM363,202.57q-16.77,0-16.78-39.26,0-41.76,17.22-41.76,16.05,0,16,40.58T363,202.57Z"/><circle class="cls-2" cx="440.64" cy="110.5" r="5.22"/><path class="cls-2" d="M492,177.37V105.28h-36.1a5.23,5.23,0,1,0,0,10.45h9a4.41,4.41,0,1,1,0,8.81H446.77a5.07,5.07,0,1,0,0,10.14H453c-1.18,1.75-2.39,3.52-3.66,5.33q-9.17,13.05-19.22,25.18H420.9a5.22,5.22,0,1,0,0,10.44h6.49a4.41,4.41,0,0,1,0,8.81H413.5a5.08,5.08,0,0,0,0,10.15h57v24.18H492V194.59h16.05V177.37Zm-21.54,0H440.73q13.11-16.26,19.67-25.64a162.19,162.19,0,0,0,10.07-16Z"/><path class="cls-3" d="M184.39,387h0a24.54,24.54,0,0,0-14,14h0a24.48,24.48,0,0,0-14-14h0a24.54,24.54,0,0,0,14-14h0a24.6,24.6,0,0,0,14,14Z"/><path class="cls-4" d="M161,434h0a13.25,13.25,0,0,0-9.42,5.1h0a13.25,13.25,0,0,0-5.1-9.42h0a13.25,13.25,0,0,0,9.42-5.1h0A13.27,13.27,0,0,0,161,434Z"/><path class="cls-4" d="M88.81,185.19h0a23.76,23.76,0,0,0-5.47,18.39h0A23.72,23.72,0,0,0,65,198.11h0a23.73,23.73,0,0,0,5.47-18.39h0a23.77,23.77,0,0,0,18.39,5.47Z"/><path class="cls-3" d="M610.57,370.71h0A37.71,37.71,0,0,0,589,392.27h0a37.71,37.71,0,0,0-21.56-21.56h0A37.73,37.73,0,0,0,589,349.14h0a37.73,37.73,0,0,0,21.56,21.57Z"/><path class="cls-4" d="M596.27,427.7h0a13.25,13.25,0,0,0-9.42,5.1h0a13.25,13.25,0,0,0-5.1-9.42h0a13.25,13.25,0,0,0,9.42-5.1h0a13.25,13.25,0,0,0,5.1,9.42Z"/><circle class="cls-5" cx="644.77" cy="444.69" r="17.68"/><path class="cls-6" d="M662,448.66c-.1.43-.23.86-.36,1.28,4.51,3,7.05,5.51,6.5,6.7-1.07,2.29-13.28-1.13-27.26-7.66s-24.45-13.68-23.38-16c.67-1.43,5.65-.64,12.69,1.73.25-.35.5-.7.76-1-8.53-2.7-14.81-3.32-15.83-1.14-1.54,3.3,9.62,11.78,24.94,18.93s29,10.26,30.54,6.95C671.5,456.51,668.05,452.82,662,448.66Z"/><circle class="cls-5" cx="116.38" cy="116.1" r="41.81"/><circle class="cls-7" cx="113.48" cy="103.75" r="5.71"/><circle class="cls-7" cx="86.08" cy="108.44" r="5.32"/><circle class="cls-7" cx="107.24" cy="123.11" r="3"/><circle class="cls-8" cx="90.69" cy="141.85" r="4.6"/><circle class="cls-7" cx="125.38" cy="148.43" r="3.63"/><circle class="cls-5" cx="78.14" cy="499.46" r="17.38"/><circle class="cls-7" cx="76.93" cy="494.32" r="2.37"/><circle class="cls-7" cx="65.54" cy="496.27" r="2.21"/><circle class="cls-7" cx="74.34" cy="502.37" r="1.25"/><circle class="cls-8" cx="67.46" cy="510.16" r="1.91"/><circle class="cls-7" cx="81.88" cy="512.89" r="1.51"/><path class="cls-6" d="M147.69,88.4c.7.79,1.34,1.61,2,2.44,12-4.52,20.3-6,21.82-3.31,3,5.21-20.41,24-52.17,42S59.4,157.8,56.45,152.58c-1.84-3.25,6.53-11.76,20.77-22.05-.35-1-.68-1.92-1-2.9-16.93,12.72-26.75,24-24,28.91,4.25,7.52,35.91-2.34,70.7-22s59.57-41.73,55.32-49.24C175.85,80.89,164,82.46,147.69,88.4Z"/><path class="cls-9" d="M42.19,427s.28-.44.85-1.24"/><path class="cls-10" d="M44.84,423.39c14.3-18.11,89.1-96.6,287.92-60.05,222.57,40.93,233.32-36.24,350-139.62"/><path class="cls-9" d="M683.92,222.72l1.12-1"/><path class="cls-6" d="M81.87,593.5c27.36-129.7,142.47-227,280.31-227,121.52,0,225.36,75.66,267,182.44"/><path class="cls-11" d="M623.59,585.83a6.89,6.89,0,1,1,0-13.77h13.46A287,287,0,0,0,513.81,409.85l-34.07,0c-33.57-1.69-51.34,21.35-51.34,21.35C364.08,500.83,289,485.5,270.7,482.39s-40.06,12.13-40.06,12.13c-69.59,39-111.12,44.8-131.27,44.26a284.67,284.67,0,0,0-16.48,50.11c-.35,1.56,2.44,4.21,8.26,4.17,61.35-.48,552.44,5.7,551.14-.36q-.74-3.45-1.56-6.87Z"/><path class="cls-12" d="M623.59,585.83a6.89,6.89,0,1,1,0-13.77h13.47a285.3,285.3,0,0,0-42.73-87l-39.36.05c-33.57-1.69-51.34,21.35-51.34,21.35-64.32,69.59-139.16,52.56-157.7,51.15a99.1,99.1,0,0,0-45.05,7.71c-25.23,11.49-44.41,19.64-58.74,26-17.71,7.82,401.33,6.79,400.17,1.4-.49-2.3-1-4.59-1.56-6.87Z"/><rect class="cls-12" x="667.3" y="585.83" width="35.5" height="13.48" rx="6.74"/><ellipse class="cls-13" cx="352.69" cy="390.36" rx="27.68" ry="12.62"/><path class="cls-14" d="M330.08,394.31c0-7,12.4-12.63,27.68-12.63,8.37,0,15.85,1.7,20.92,4.37-3.86-4.85-14-8.32-26-8.32-15.29,0-27.69,5.65-27.69,12.63,0,3.15,2.56,6,6.77,8.25A6.94,6.94,0,0,1,330.08,394.31Z"/><ellipse class="cls-13" cx="159.93" cy="558.92" rx="30.8" ry="12.13" transform="translate(-362.44 303.77) rotate(-48)"/><path class="cls-15" d="M150.21,556.44c11.38-12.64,24.64-19.26,29.62-14.77a6.25,6.25,0,0,1,1.84,4.34c1.24-4.48,1-8.08-1.13-10-5-4.48-18.24,2.14-29.63,14.78-8.82,9.8-13.9,20.33-13.43,26.66C139.17,571.39,143.66,563.72,150.21,556.44Z"/><ellipse class="cls-13" cx="433.11" cy="484.23" rx="17.63" ry="26.81" transform="translate(-208.47 586.36) rotate(-57.23)"/><path class="cls-16" d="M412,474.51c5.27-8.19,19.63-8.33,32.09-.31,6.36,4.09,11,9.53,13.28,14.95-1.12-6.88-6.44-14.44-14.69-19.75-12.46-8-26.82-7.87-32.09.31-2.58,4-2.49,9.19-.29,14.38A13.38,13.38,0,0,1,412,474.51Z"/><path class="cls-13" d="M559.69,588.89a34.19,34.19,0,1,0-61.33,0Z"/><path class="cls-17" d="M505.17,588.89a33.83,33.83,0,0,1,49.9-36.52,33.92,33.92,0,0,0-56.71,36.52Z"/><rect class="cls-12" x="56.49" y="585.83" width="605.97" height="13.49" rx="6.75"/><path class="cls-18" d="M732.13,135.87c-.75,0-29.24,7-29.24,7l-8.09,14.3,27.93.75Z"/><polygon class="cls-18" points="758.84 157.97 758.84 187.87 747.27 198.41 737.68 171.79 758.84 157.97"/><path class="cls-19" d="M721.93,162.06s-23.56,8.46-28.63,23.27c0,0,8.18-10.86,21.72-9l10.3,13s.14,10.72-4.38,15.66c0,0,11.43-4.65,14.95-30.47Z"/><path class="cls-20" d="M721.37,166.86s-29.77,7-30.19,48.38c0,0,37.38-6.21,39.92-41.47Z"/><path class="cls-21" d="M719.53,167.37s-19.93,12.13-18.62,35.08c0,0,20.41-.1,32-27.18Z"/><ellipse class="cls-22" cx="759.12" cy="129.56" rx="59.2" ry="20.51" transform="translate(175.9 632.45) rotate(-50.46)"/><path class="cls-11" d="M790.77,119.67c9.24-16.61,12.09-30.76,6-35.76-6.27-5.17-20.35.87-35.49,14,0,0,.39,6.61,10.4,14.51S790.77,119.67,790.77,119.67Z"/><path class="cls-23" d="M751.93,124.28c18.71-22.66,35.91-40.1,41.18-42-10.64-2-31.44,12-49.81,34.24-18,21.76-27.7,44.3-24.43,54.71C721.44,164.12,734.61,145.26,751.93,124.28Z"/><path class="cls-24" d="M741.54,153.88l-3-2.46-18.46,22.35a7,7,0,0,0,1.32,1.44,7.34,7.34,0,0,0,1.65,1Z"/><path class="cls-25" d="M273.23,273.06l-1.81.9v5.71a1.8,1.8,0,0,1-2,2h-1.81l-.42-1.87a13.72,13.72,0,0,0,1.56.1.66.66,0,0,0,.75-.75v-4.41q-1.55.57-2.34.81l-.48-1.95a27.47,27.47,0,0,0,2.82-.81V268.6H267v-1.85h2.44v-3.56h1.95v3.56h1.77v1.85h-1.77V272c.65-.31,1.25-.62,1.81-.92Zm11.29-7.59q-.12,7.92-.32,9.14a2.63,2.63,0,0,1-.78,1.75,4.83,4.83,0,0,1-2.64.46h-.34l-.41-1.34h-3.84v3.33a.71.71,0,0,0,.8.81h5.22a1.33,1.33,0,0,0,1.13-.52,8,8,0,0,0,.45-2.14l1.85.61a10.75,10.75,0,0,1-.57,2.56,2.2,2.2,0,0,1-2.23,1.32h-6.65c-1.23,0-1.84-.63-1.84-1.91v-8.93a.65.65,0,0,1-.09.1l-.1.12-1.24-1.62a13.41,13.41,0,0,0,3-6.14l1.95.25c-.15.66-.35,1.38-.59,2.15Zm-3.86,3.92V275h.69a1,1,0,0,0,.9-.36,4.13,4.13,0,0,0,.22-1.32q0-1.44.1-6h-6a16.36,16.36,0,0,1-1.24,2.14Zm-4.47,4.34h2.62v-2.57h-2.62Z"/><path class="cls-25" d="M297.11,275.83h-2.68v.46a37.07,37.07,0,0,1,3.13,2.2l-1,1.48a29.21,29.21,0,0,0-2.16-2v3.92h-1.56v-6h-1.12v6h-1.54V278a12.17,12.17,0,0,1-2.36,3.11l-1-1.52a9.36,9.36,0,0,0,3-3.78h-1.56v-1.59h1.89v-1.4h-2.8v-1.6h2.8V269.9H288.4v-1.59h1.81v-1.22h-2.58v-1.68H290a17.11,17.11,0,0,0-.78-1.93l1.79-.31c.19.57.4,1.32.63,2.24h1.73a18.42,18.42,0,0,0,.63-2.3l1.78.25a9.85,9.85,0,0,1-.67,2.05h2.67v1.68h-3.34v1.22h2.68v2.93h1v1.6h-1Zm-4.24-7.52v-1.22h-1.12v1.22Zm-1.12,1.59v1.34h1.12V269.9Zm0,2.94v1.4h1.12v-1.4Zm2.68-2.94v1.34h1.08V269.9Zm0,2.94v1.4h1.08v-1.4Zm7.8-3.53c0,1.08,0,2.25-.14,3.51a15.9,15.9,0,0,0,3.94,7.66l-1.3,1.52a18.54,18.54,0,0,1-3.17-5.89v0a10.14,10.14,0,0,1-3.82,6l-1.11-1.4a9.45,9.45,0,0,0,3.21-5,30.07,30.07,0,0,0,.61-6.42Zm-1-5.95c-.12,1-.27,2-.43,2.84h4.84v1.14a48.29,48.29,0,0,1-1,4.87l-1.71-.47a29.09,29.09,0,0,0,.88-3.86h-3.45a12.35,12.35,0,0,1-1.49,3.44l-1.44-1a17.79,17.79,0,0,0,2-7.25Z"/><path class="cls-25" d="M312.19,279.3a4.67,4.67,0,0,1-2.68,4.35l-.67-1.08a3.69,3.69,0,0,0,1.93-2.78,1.73,1.73,0,0,1-.37,0,1.53,1.53,0,0,1-1.06-.41,1.38,1.38,0,0,1-.42-1,1.43,1.43,0,0,1,.4-1.08,1.49,1.49,0,0,1,1.08-.39C311.59,276.94,312.19,277.73,312.19,279.3Z"/><path class="cls-25" d="M343.59,267.48v9.85h-1.95v-8h-9.18v8h-1.95v-9.87h5.18c.16-.79.27-1.38.32-1.79h-7.92v-1.83h18v1.83h-8c-.16.81-.29,1.41-.4,1.79Zm-7.48,2.86h1.95v3.23a8.08,8.08,0,0,1-2.19,5.43q-1.9,1.85-6.42,2.9l-1.1-1.73q4.47-1,6-2.45a6.18,6.18,0,0,0,1.72-4.15Zm2.46,6.77a39.1,39.1,0,0,1,7.11,3l-1.2,1.83a35.28,35.28,0,0,0-7-3.27Z"/><path class="cls-25" d="M348.3,263.86h18.2v1.85h-8a18,18,0,0,1-.63,2.13h7.68V282h-1.87v-.85H351.19V282h-1.87V267.84h6.6a12.06,12.06,0,0,0,.61-2.13H348.3Zm2.89,15.48h2.31v-9.73h-2.31Zm4.12-7.62h4.18v-2.11h-4.18Zm0,3.78h4.18v-2.11h-4.18Zm0,3.84h4.18v-2.19h-4.18Zm6,0h2.38v-9.73H361.3Z"/><path class="cls-25" d="M375.29,273c-.73.38-1.48.75-2.25,1.1v5.67a1.79,1.79,0,0,1-2,2.05H369.3l-.44-1.89a10,10,0,0,0,1.52.12c.49,0,.73-.26.73-.77v-4.35c-.89.33-1.68.61-2.36.84l-.52-2.06a28.38,28.38,0,0,0,2.88-.83V268.6h-2.6v-1.85h2.6v-3.52H373v3.52h2.21v1.85H373v3.51c.84-.38,1.59-.75,2.25-1.12Zm10.49-5.87.28,1.83L380,270.06a19.71,19.71,0,0,0,.38,2.62c.17.8.35,1.52.55,2.17a17.65,17.65,0,0,0,3.17-4.34l1.67.87a19.62,19.62,0,0,1-4.15,5.44c.15.33.31.66.49,1,.72,1.15,1.37,1.74,1.95,1.76.39-.08.81-1.17,1.26-3.29l1.73,1.08a17.73,17.73,0,0,1-1.16,2.91c-.52.94-1.09,1.42-1.73,1.42-.95,0-1.92-.66-2.9-2a10.72,10.72,0,0,1-1-1.77,18.3,18.3,0,0,1-4.35,2.25l-1.05-1.64a16.72,16.72,0,0,0,4.63-2.44c-.25-.69-.47-1.41-.67-2.15a23,23,0,0,1-.67-3.58l-2.48.47-.28-1.85,2.58-.47c-.15-1.7-.23-3.5-.23-5.38h1.95c0,2,.06,3.7.16,5Zm-3.07-4c.65.81,1.28,1.69,1.89,2.62l-1.73.88A21,21,0,0,0,381,264Z"/><path class="cls-25" d="M389.29,264.11h17.47V266H400.2c-.41.85-.8,1.59-1.18,2.23V282h-2V271a28.14,28.14,0,0,1-7.09,5.83l-1.28-1.68q6.69-3.78,9.36-9.14h-8.73Zm12.29,5.52a43.33,43.33,0,0,1,5.77,5.38l-1.53,1.53A37,37,0,0,0,400.2,271Z"/><path class="cls-25" d="M409.42,263.9h10.22v1.83h-5.1a24.17,24.17,0,0,1-2.36,4c1.52-.14,3.11-.36,4.77-.65l-1.25-1.87,1.48-.95a39.16,39.16,0,0,1,3.09,4.65l-1.61,1.12-.83-1.52c-2.57.47-5.34.86-8.31,1.15l-.43-1.72a2.25,2.25,0,0,0,.76-.19,14.53,14.53,0,0,0,2.62-4.06h-3.05ZM419.72,280q-5,1-10.16,1.67l-.45-1.85c1.41-.15,3-.35,4.64-.59v-3.35H410V274h3.76v-2.15h1.95V274h3.43v1.85H415.7v3q1.47-.25,4-.81Zm1.34-14.93h1.87v12.45h-1.87Zm.85,16.68-.43-1.87c1.09.07,2,.1,2.77.1a.69.69,0,0,0,.77-.79V263.23h2v16.44a1.82,1.82,0,0,1-2.05,2.07Z"/><path class="cls-25" d="M438,269.92a44,44,0,0,0,5.6-3.84h-13v-1.87h15.66v1.87a50.7,50.7,0,0,1-6.33,4.81v8.73a1.88,1.88,0,0,1-2.12,2.14c-1.23,0-2.3,0-3.22-.12l-.53-1.87a27.21,27.21,0,0,0,3.23.18c.47,0,.71-.22.71-.67Z"/><path class="cls-25" d="M455,277.33a1.34,1.34,0,0,1,.42,1,1.42,1.42,0,0,1-.42,1.05,1.6,1.6,0,0,1-1.08.41,1.5,1.5,0,0,1-1.48-1.46,1.3,1.3,0,0,1,.45-1,1.39,1.39,0,0,1,1-.41A1.46,1.46,0,0,1,455,277.33Zm-2.34-12h2.54l-.47,10.4h-1.6Z"/></g></g></svg>