<svg xmlns="http://www.w3.org/2000/svg" xmlns:xlink="http://www.w3.org/1999/xlink" viewBox="0 0 218 46"><defs><style>.cls-1{fill:url(#未命名的渐变_3);}.cls-2{fill:url(#未命名的渐变_8);}.cls-3{fill:url(#未命名的渐变_8-2);}.cls-4{fill:url(#未命名的渐变_8-3);}.cls-5{fill:url(#未命名的渐变_8-4);}.cls-6{fill:url(#未命名的渐变_8-5);}.cls-7{fill:url(#未命名的渐变_8-6);}.cls-8{fill:url(#未命名的渐变_8-7);}</style><radialGradient id="未命名的渐变_3" cx="-923.46" cy="2.66" r="10.22" gradientTransform="matrix(1, 0, -0.27, 1, 974.93, 0)" gradientUnits="userSpaceOnUse"><stop offset="0" stop-color="#5eb0dc"/><stop offset="1" stop-color="#1f3e8a"/></radialGradient><linearGradient id="未命名的渐变_8" x1="-955.63" y1="0.08" x2="-955.63" y2="22.41" gradientTransform="matrix(1, 0, -0.27, 1, 974.93, 0)" xlink:href="#未命名的渐变_3"/><linearGradient id="未命名的渐变_8-2" x1="-921.06" y1="34.78" x2="-943.8" y2="34.78" gradientTransform="matrix(1, 0, -0.27, 1, 974.93, 0)" xlink:href="#未命名的渐变_3"/><linearGradient id="未命名的渐变_8-3" x1="-960.88" y1="22.63" x2="-920.82" y2="22.63" gradientTransform="matrix(1, 0, -0.27, 1, 974.93, 0)" xlink:href="#未命名的渐变_3"/><linearGradient id="未命名的渐变_8-4" x1="-948.72" y1="43.42" x2="-943.57" y2="43.42" gradientTransform="matrix(1, 0, -0.27, 1, 974.93, 0)" xlink:href="#未命名的渐变_3"/><linearGradient id="未命名的渐变_8-5" x1="13797.35" y1="10667.74" x2="13802.5" y2="10667.74" gradientTransform="matrix(-1, 0, 0.27, -1, 10954.89, 10706)" xlink:href="#未命名的渐变_3"/><linearGradient id="未命名的渐变_8-6" x1="-959.03" y1="43.42" x2="-953.88" y2="43.42" gradientTransform="matrix(1, 0, -0.27, 1, 974.93, 0)" xlink:href="#未命名的渐变_3"/><linearGradient id="未命名的渐变_8-7" x1="13807.66" y1="10667.74" x2="13812.81" y2="10667.74" gradientTransform="matrix(-1, 0, 0.27, -1, 10954.89, 10706)" xlink:href="#未命名的渐变_3"/></defs><title>资源 19</title><g id="图层_2" data-name="图层 2"><g id="图层_1-2" data-name="图层 1"><path class="cls-1" d="M45.35,0a2.42,2.42,0,0,0-2.19,1.73l-2.23,8.32h8.76a2.42,2.42,0,0,0,2.19-1.74L54.11,0Z"/><path class="cls-2" d="M21.62,0H14.05L7.91,22.9c2.4-4.94,7.57-9.69,14-12.85l1.9-7.13A2.17,2.17,0,0,0,21.62,0h0"/><path class="cls-3" d="M33.26,35.21a3,3,0,0,1-1.58.48H23.26a2,2,0,0,0-1.85,1.46L19,46H37.4A6.13,6.13,0,0,0,43,41.61l4.84-18c-2.95,4.68-8.23,8.93-14.54,11.65"/><path class="cls-4" d="M7.91,22.9,7.34,25a3.45,3.45,0,0,0,3.54,4.56H33.32a1.73,1.73,0,0,1,1.77,2.28l-.42,1.56a3.17,3.17,0,0,1-1.41,1.8c6.31-2.72,11.59-7,14.54-11.65L50,15.22A1.08,1.08,0,0,0,49,13.76H41.41a2.06,2.06,0,0,0-1.87,1.47l-1.15,4.29H21.72A1.72,1.72,0,0,1,20,17.25l1.92-7.2C15.48,13.21,10.31,18,7.91,22.9"/><path class="cls-5" d="M15.26,40.84l-1.14,4.29a.64.64,0,0,0,.63.87H19l1.15-4.29a.65.65,0,0,0-.64-.87Z"/><path class="cls-6" d="M15.26,40.84l1.15-4.28a.64.64,0,0,0-.63-.87H11.49L10.34,40a.64.64,0,0,0,.64.86Z"/><path class="cls-7" d="M5,40.84,3.8,45.13a.65.65,0,0,0,.64.87H8.73l1.15-4.29a.65.65,0,0,0-.64-.87Z"/><path class="cls-8" d="M5,40.84,6.1,36.56a.64.64,0,0,0-.63-.87H1.18L0,40a.64.64,0,0,0,.64.86Z"/><path d="M77.2,34.72V24.27l-.79.32a20.58,20.58,0,0,0-1.76-2.18c2.39-.93,3.86-1.95,4.42-3H74.86v-2.3h1.45a20.1,20.1,0,0,0-1.38-1.94,14.7,14.7,0,0,0,2.55-3.64h3c-.26.58-.53,1.13-.81,1.64h6.55v2.32H83a15.66,15.66,0,0,1-.19,1.62H87v2.3H83.31l3.34,2.22-1.52,1.74h10V34.72H92v-1H80.34v1Zm-.37-17.65h3c.08-.48.13-1,.17-1.62h-1.7A15.23,15.23,0,0,1,76.83,17.07ZM79,23.33h5.38c-1-.93-1.91-1.76-2.75-2.47A8.17,8.17,0,0,1,79,23.33Zm13,2.46H80.34v1.64H92ZM80.34,31.23H92V29.7H80.34Zm7-18h9.35V22H87.33Zm6.44,6.28v-3.8H90.23v3.8Z"/><path d="M108.07,13.55c1.14,1.57,2.3,3.25,3.47,5.07-1,.56-1.78,1-2.49,1.43l-.65-1.14-9.05.64-.82-2.62q1.57-.83,4.62-5.46l3,1.12-3.43,4.15,4.28-.17c-.38-.61-.77-1.21-1.16-1.8Zm-5.37,21H99.77V20.38h10v11a3.76,3.76,0,0,1-.5,2.12,2.05,2.05,0,0,1-1.52.88,24.8,24.8,0,0,1-3.32.09c-.22-.9-.47-1.83-.75-2.78.77,0,1.38.07,1.83.07.61,0,1-.11,1.12-.33a1.37,1.37,0,0,0,.22-.75v-.56H102.7Zm4.18-11.62H102.7v1.33h4.18Zm-4.18,4.94h4.18V26.52H102.7Zm16.13-11a26.52,26.52,0,0,0,2.9,1.19c-.21.93-.43,1.74-.65,2.46a2.64,2.64,0,0,1-1.18,1.58,4.34,4.34,0,0,1-2.24.51h-2.42q-3.6,0-3.63-3.51V11.7h3v3.54q2.89-1.32,4.87-2.46l2.06,2.39c-1.69.78-4,1.71-6.93,2.81v.73c0,.88.52,1.31,1.57,1.31h.75c.85,0,1.34-.24,1.47-.73S118.66,18,118.83,16.86ZM118.9,28c.95.39,1.93.77,2.93,1.15a13.91,13.91,0,0,1-.87,3.5,2.75,2.75,0,0,1-1.24,1.19,4.74,4.74,0,0,1-2,.42h-2.46q-3.61,0-3.61-3.54V23.23h3v2.92c1.72-.86,3.34-1.74,4.85-2.66L121.5,26c-2.13,1-4.44,2-6.91,3.07v1.2c0,1,.44,1.43,1.33,1.43h1a1.66,1.66,0,0,0,1.37-.45A9.8,9.8,0,0,0,118.9,28Z"/><path d="M145.83,31l-1.06,3.07q-13.36.09-15.2-.35a5.14,5.14,0,0,1-3-1.92c-1,.92-1.91,1.88-2.84,2.88l-1.31-3.66c.73-.66,1.5-1.31,2.32-1.95V22.63h-2.13v-3.1H128v9.54a5.52,5.52,0,0,0,3.65,2c.67.08,2.12.12,4.33.11Q139.65,31.18,145.83,31ZM125.91,11.47q1.75,2.16,3.39,4.5l-2.88,1.9a46.56,46.56,0,0,0-3.19-4.69ZM141,21.83a74.21,74.21,0,0,1,4.36,6.82l-2.83,1.5c-.3-.56-.6-1.12-.91-1.67q-7.44.43-10.88.9l-1.27-2.63a16,16,0,0,0,3.83-5.13h-3.85V18.57h15.94v3.05h-8.27a37.18,37.18,0,0,1-3,4.47c1.55-.05,3.54-.16,6-.31-.53-.87-1.07-1.71-1.61-2.52Zm3-6.07H131v-3h13.1Z"/><path d="M149.58,18.73l1.35,0c.46-.95,1-2,1.48-3.13l2.63,1q-2.41,5-4.27,8.18c.88-.07,2-.21,3.4-.39a20.72,20.72,0,0,0-.28,2.81,52.58,52.58,0,0,0-6.07.77l-.8-2.65a21,21,0,0,0,2.55-3.95l-2.29.2-.8-2.57c.79-.91,2-3.4,3.5-7.48l2.88.87C151.69,14.79,150.59,16.92,149.58,18.73Zm-3.07,11.32q3.42-.43,8.25-1.28c-.08,1.31-.11,2.39-.1,3.25-2.43.38-5,.82-7.68,1.32Zm17.08-18.58c.94,1.33,1.68,2.44,2.23,3.35l-2,1.06h5.49v2.53h-4v2.43h3.85v2.42h-3.85V25.7h3.85v2.41h-3.85v2.44h4.31V33H158.77v1.64h-3.1V23.15q-.51.77-1,1.47a16.76,16.76,0,0,0-1.27-3.12,33.18,33.18,0,0,0,4.29-9.94l3,.8c-.37,1.22-.77,2.39-1.21,3.52H163c-.48-1-1.07-2-1.76-3.12Zm-4.82,9.37h3.42V18.41h-3.42Zm0,4.86h3.42V23.26h-3.42Zm0,4.85h3.42V28.11h-3.42Z"/><path d="M170.7,24.2h9.54V15.59h-8.51V12.5h20.72v3.09H183.8V24.2h9.68v3.09H183.8v7.29h-3.56V27.29H170.7Zm1.36-6.5L174.52,16q2.25,2.63,4.67,5.81l-2.84,1.88Q174,20.15,172.06,17.7Zm20.44.24c-1.66,2-3.41,3.94-5.25,5.86l-2.39-1.95a51.9,51.9,0,0,0,4.87-5.79Z"/><path d="M211.32,14.35q3.62,3.53,6.68,6.92l-2.6,2.2-1.83-2.16q-10.08.17-17.51.85l-1.24-2.77A40.36,40.36,0,0,0,204,11.28L207,13q-3.33,3.14-7,6.14l11.27-.4-2.39-2.63ZM197,34.65v-11h18v11h-3.19V33.27H200.21v1.38Zm14.86-8.09H200.21v3.8h11.67Z"/></g></g></svg>